<svg xmlns="http://www.w3.org/2000/svg" xml:space="preserve" style="fill-rule:evenodd;clip-rule:evenodd;stroke-linecap:round;stroke-linejoin:round;stroke-miterlimit:1.5" viewBox="0 0 2000 2000"><path d="M0 0h2000v2000H0z" style="fill:none"/><path d="M1226.863 363.096c16.537 259.176 252.702 619.877 478.93 622.38-219.338-1.998-440.345 338.508-462.355 623.311-11.8-253.536-289.209-627.794-512.797-628.473 226.17.68 514.99-355.086 496.222-617.218Z"/><path d="M866.705 1139.954c9.082 142.342 81.066 264.638 205.313 266.014-120.463-1.098-183.962 86.992-196.05 243.409-6.48-139.234-73.848-247.63-196.646-247.993 124.215.373 197.691-117.468 187.383-261.43ZM759.111 351.271c9.082 142.343 81.066 264.64 205.313 266.014-120.463-1.098-183.962 86.992-196.05 243.41-6.48-139.234-73.848-247.63-196.646-247.993 124.215.373 197.691-117.468 187.383-261.43ZM482.227 778.878c9.082 142.343 81.065 264.639 205.312 266.014-120.463-1.098-183.961 86.992-196.049 243.41-6.481-139.235-73.849-247.631-196.646-247.994 124.215.373 197.69-117.467 187.383-261.43Z"/><circle cx="934.497" cy="900.44" r="327.251" style="fill:none;stroke-width:6.81px" transform="translate(-1572.91 -1479.13) scale(2.75359)"/></svg>