<?xml version="1.0" encoding="UTF-8" standalone="no"?>
<!DOCTYPE svg PUBLIC "-//W3C//DTD SVG 1.1//EN" "http://www.w3.org/Graphics/SVG/1.1/DTD/svg11.dtd">
<svg width="100%" height="100%" viewBox="0 0 2000 2000" version="1.1" xmlns="http://www.w3.org/2000/svg" xmlns:xlink="http://www.w3.org/1999/xlink" xml:space="preserve" xmlns:serif="http://www.serif.com/" style="fill-rule:evenodd;clip-rule:evenodd;stroke-linecap:round;stroke-linejoin:round;stroke-miterlimit:1.5;">
    <rect id="Artboard1" x="0" y="0" width="2000" height="2000" style="fill:none;"/>
    <g id="Artboard11" serif:id="Artboard1">
        <g transform="matrix(1.94087,0,0,1.94087,-1750.47,-1202.33)">
            <path d="M1534.02,806.559C1542.54,940.095 1664.22,1125.94 1780.78,1127.23C1667.77,1126.2 1553.9,1301.64 1542.56,1448.38C1536.48,1317.75 1393.55,1124.92 1278.35,1124.57C1394.88,1124.92 1543.69,941.618 1534.02,806.559Z"/>
            <g transform="matrix(0.549212,0,0,0.549212,506.035,724.353)">
                <path d="M1533.87,878.474C1542.39,1012.01 1609.92,1126.74 1726.48,1128.03C1613.47,1127 1553.9,1209.64 1542.56,1356.38C1536.48,1225.76 1473.28,1124.07 1358.08,1123.73C1474.61,1124.08 1543.54,1013.53 1533.87,878.474Z"/>
            </g>
            <g transform="matrix(0.549212,0,0,0.549212,450.599,317.998)">
                <path d="M1533.87,878.474C1542.39,1012.01 1609.92,1126.74 1726.48,1128.03C1613.47,1127 1553.9,1209.64 1542.56,1356.38C1536.48,1225.76 1473.28,1124.07 1358.08,1123.73C1474.61,1124.08 1543.54,1013.53 1533.87,878.474Z"/>
            </g>
            <g transform="matrix(0.549212,0,0,0.549212,307.939,538.315)">
                <path d="M1533.87,878.474C1542.39,1012.01 1609.92,1126.74 1726.48,1128.03C1613.47,1127 1553.9,1209.64 1542.56,1356.38C1536.48,1225.76 1473.28,1124.07 1358.08,1123.73C1474.61,1124.08 1543.54,1013.53 1533.87,878.474Z"/>
            </g>
        </g>
        <g transform="matrix(2.75359,0,0,2.75359,-1572.91,-1479.13)">
            <circle cx="934.497" cy="900.44" r="327.251" style="fill:none;stroke:black;stroke-width:6.81px;"/>
        </g>
    </g>
</svg>
